# Exported Supercar SubMesh
v 0.106556 0.241923 -0.113735
v 0.106556 0.047324 0.027650
v 0.106556 0.276088 -0.046681
v 0.106556 0.188708 -0.166950
v 0.106556 0.121653 -0.201114
v 0.106556 0.047324 -0.212888
v 0.106556 -0.027007 -0.201114
v 0.106556 -0.094061 -0.166949
v 0.106556 -0.147275 -0.113735
v 0.106556 -0.181442 -0.046681
v 0.106556 -0.193214 0.027650
v 0.106556 -0.181442 0.101981
v 0.106556 -0.147275 0.169034
v 0.106556 -0.094061 0.222249
v 0.106556 -0.027007 0.256415
v 0.106556 0.047324 0.268187
v 0.106556 0.121653 0.256415
v 0.106556 0.188708 0.222249
v 0.106556 0.241923 0.169034
v 0.106556 0.276088 0.101981
v 0.106556 0.287862 0.027650
v -0.010171 0.271020 -0.134875
v -0.010171 0.257651 -0.125162
v -0.010171 0.294578 -0.052689
v -0.010171 0.310295 -0.057795
v -0.010171 0.209849 -0.196047
v -0.010171 0.200135 -0.182678
v -0.010171 0.132768 -0.235321
v -0.010171 0.127661 -0.219605
v -0.010171 0.047324 -0.248855
v -0.010171 0.047324 -0.232329
v -0.010171 -0.038121 -0.235321
v -0.010171 -0.033014 -0.219605
v -0.010171 -0.115201 -0.196046
v -0.010171 -0.105489 -0.182677
v -0.010171 -0.176373 -0.134875
v -0.010171 -0.163004 -0.125162
v -0.010171 -0.215648 -0.057794
v -0.010171 -0.199931 -0.052688
v -0.010171 -0.229180 0.027650
v -0.010171 -0.212656 0.027650
v -0.010171 -0.215648 0.113095
v -0.010171 -0.199931 0.107988
v -0.010171 -0.176372 0.190175
v -0.010171 -0.163004 0.180461
v -0.010171 -0.115201 0.251346
v -0.010171 -0.105488 0.237978
v -0.010171 -0.038121 0.290621
v -0.010171 -0.033014 0.274905
v -0.010171 0.047324 0.304154
v -0.010171 0.047324 0.287629
v -0.010171 0.132768 0.290621
v -0.010171 0.127661 0.274905
v -0.010171 0.209849 0.251346
v -0.010171 0.200135 0.237978
v -0.010171 0.271020 0.190175
v -0.010171 0.257651 0.180461
v -0.010171 0.310294 0.113095
v -0.010171 0.294578 0.107988
v -0.010171 0.323828 0.027650
v -0.010171 0.307302 0.027650
v 0.004439 0.241923 -0.113735
v 0.004439 0.276088 -0.046681
v 0.004439 0.188708 -0.166950
v 0.004439 0.121653 -0.201114
v 0.004439 0.047324 -0.212888
v 0.004439 -0.027007 -0.201114
v 0.004439 -0.094061 -0.166949
v 0.004439 -0.147275 -0.113735
v 0.004439 -0.181442 -0.046681
v 0.004439 -0.193214 0.027650
v 0.004439 -0.181442 0.101981
v 0.004439 -0.147275 0.169034
v 0.004439 -0.094061 0.222249
v 0.004439 -0.027007 0.256415
v 0.004439 0.047324 0.268187
v 0.004439 0.121653 0.256415
v 0.004439 0.188708 0.222249
v 0.004439 0.241923 0.169034
v 0.004439 0.276088 0.101981
v 0.004439 0.287862 0.027650
v -0.016397 0.297874 -0.154386
v -0.009033 0.239939 -0.237462
v -0.016397 0.229359 -0.222901
v 0.008743 0.150891 -0.291099
v -0.009033 0.148587 -0.284007
v -0.016397 0.143025 -0.266890
v 0.008743 0.047324 -0.307502
v -0.009033 0.047324 -0.300046
v -0.016397 0.047324 -0.282047
v 0.008743 -0.056244 -0.291099
v -0.009033 -0.053940 -0.284007
v -0.016397 -0.048379 -0.266890
v 0.008743 -0.149674 -0.243494
v -0.009033 -0.145291 -0.237462
v -0.016397 -0.134712 -0.222901
v 0.008743 -0.223819 -0.169347
v -0.009033 -0.217788 -0.164965
v -0.016397 -0.203226 -0.154386
v 0.008743 -0.271424 -0.075918
v -0.009033 -0.264334 -0.073614
v -0.016397 -0.247216 -0.068052
v 0.008743 -0.287827 0.027650
v -0.009033 -0.280372 0.027650
v -0.016397 -0.262374 0.027650
v 0.008743 -0.271424 0.131218
v -0.009033 -0.264334 0.128913
v -0.016397 -0.247216 0.123351
v 0.008743 -0.223819 0.224647
v -0.009033 -0.217788 0.220265
v -0.016397 -0.203226 0.209685
v 0.008743 -0.149674 0.298793
v -0.009033 -0.145291 0.292762
v -0.016397 -0.134712 0.278200
v -0.016397 -0.048378 0.322190
v 0.028358 0.082547 0.007313
v 0.048371 0.086398 0.005090
v 0.048371 0.069883 -0.011425
v 0.028358 0.067660 -0.007574
v 0.048371 0.047324 -0.017470
v 0.028358 0.047324 -0.013023
v 0.048371 0.024764 -0.011425
v 0.028358 0.026987 -0.007574
v 0.048371 0.008249 0.005090
v 0.028358 0.012100 0.007313
v 0.048371 0.002205 0.027650
v 0.028358 0.006651 0.027650
v 0.048371 0.008249 0.050210
v 0.028358 0.012100 0.047986
v 0.048371 0.024764 0.066724
v 0.028358 0.026987 0.062873
v 0.048371 0.047324 0.072768
v 0.028358 0.047324 0.068323
v 0.048371 0.069883 0.066724
v 0.028358 0.067660 0.062873
v 0.048371 0.086398 0.050210
v 0.028358 0.082547 0.047986
v 0.048371 0.092443 0.027650
v 0.028358 0.087996 0.027650
v 0.028358 0.047324 0.027650
v 0.045495 0.099780 -0.010462
v 0.045495 0.047324 0.027650
v 0.045495 0.108990 0.007613
v 0.045495 0.085436 -0.024808
v 0.045495 0.067360 -0.034017
v 0.045495 0.047324 -0.037190
v 0.045495 0.027287 -0.034017
v 0.045495 0.009211 -0.024808
v 0.045495 -0.005133 -0.010462
v 0.045495 -0.014343 0.007613
v 0.045495 -0.017516 0.027650
v 0.045495 -0.014343 0.047686
v 0.045495 -0.005133 0.065762
v 0.045495 0.009211 0.080106
v 0.045495 0.027287 0.089316
v 0.045495 0.047324 0.092489
v 0.045495 0.067360 0.089316
v 0.045495 0.085436 0.080106
v 0.045495 0.099780 0.065762
v 0.045495 0.108990 0.047686
v 0.045495 0.112164 0.027650
v 0.000945 0.202706 -0.051522
v 0.000945 0.193150 -0.058037
v 0.000945 0.202361 -0.039962
v 0.000945 0.126495 -0.127733
v 0.000945 0.114935 -0.127387
v 0.000945 0.133010 -0.118178
v 0.000945 0.020043 -0.144593
v 0.000945 0.010894 -0.137518
v 0.000945 0.030931 -0.140692
v 0.000945 -0.079232 -0.084561
v 0.000945 -0.064888 -0.098907
v 0.000945 -0.121018 0.011257
v 0.000945 -0.117845 -0.008781
v 0.000945 -0.098503 0.113336
v 0.000945 -0.107713 0.095261
v 0.000945 -0.020287 0.182686
v 0.000945 -0.038362 0.173476
v 0.000945 0.083753 0.192818
v 0.000945 0.063716 0.195991
v 0.000945 0.170635 0.150962
v 0.000945 0.173879 0.139860
v 0.000945 0.159534 0.154205
v 0.000945 0.219566 0.054930
v 0.000945 0.215665 0.044043
v 0.000945 0.212491 0.064080
v 0.000945 0.308004 -0.036805
v 0.000945 0.308350 -0.048365
v 0.000945 0.220333 -0.177720
v 0.000945 0.213818 -0.187274
v 0.000945 0.066579 -0.240190
v 0.000945 0.055691 -0.244090
v 0.000945 -0.094532 -0.200355
v 0.000945 -0.105632 -0.197111
v 0.000945 -0.075988 -0.095662
v 0.000945 -0.201457 -0.073430
v 0.000945 -0.208531 -0.064281
v 0.000945 -0.124919 0.000369
v 0.000945 -0.213357 0.092104
v 0.000945 -0.213702 0.103664
v 0.000945 -0.108058 0.106820
v 0.000944 -0.125686 0.233019
v 0.000944 -0.119170 0.242574
v 0.000945 -0.031847 0.183031
v 0.000945 0.028070 0.295489
v 0.000945 0.038957 0.299390
v 0.000945 0.074604 0.199891
v 0.000945 0.189178 0.255654
v 0.000945 0.200279 0.252410
v 0.000945 0.296104 0.128728
v 0.000945 0.303179 0.119579
v 0.000945 0.319064 0.019283
v 0.000945 0.315163 0.008395
v 0.000945 0.262248 -0.138844
v 0.000945 0.252694 -0.145359
v 0.000945 0.123339 -0.233377
v 0.000945 0.111779 -0.233031
v 0.000945 -0.044606 -0.228205
v 0.000945 -0.053755 -0.221131
v 0.000944 -0.177437 -0.125306
v 0.000944 -0.180681 -0.114204
v 0.000945 -0.224417 0.036017
v 0.000945 -0.220516 0.046904
v 0.000945 -0.167601 0.194143
v 0.000945 -0.158045 0.200659
v 0.000945 -0.028692 0.288675
v 0.000945 -0.017131 0.288330
v 0.000945 0.139254 0.283504
v 0.000945 0.148403 0.276429
v 0.000945 0.272084 0.180606
v 0.000945 0.275328 0.169504
v 0.073876 0.114083 -0.020854
v 0.073876 0.095828 -0.039110
v 0.073876 0.072824 -0.050831
v 0.073876 0.047324 -0.054870
v 0.073876 0.021824 -0.050831
v 0.073876 -0.001180 -0.039110
v 0.073876 -0.019436 -0.020854
v 0.073876 -0.031157 0.002149
v 0.073876 -0.035196 0.027649
v 0.073876 -0.031157 0.053149
v 0.073876 -0.019436 0.076153
v 0.073876 -0.001180 0.094409
v 0.073876 0.021824 0.106131
v 0.073876 0.047324 0.110169
v 0.073876 0.072824 0.106131
v 0.073876 0.095828 0.094409
v 0.073876 0.114083 0.076153
v 0.073876 0.125804 0.053149
v 0.073876 0.129843 0.027649
v 0.073876 0.125804 0.002149
v 0.029327 0.202361 -0.039962
v 0.029327 0.193150 -0.058037
v 0.029327 0.133010 -0.118178
v 0.029327 0.114935 -0.127387
v 0.029327 0.030931 -0.140692
v 0.029327 0.010894 -0.137518
v 0.029327 -0.064888 -0.098907
v 0.029327 -0.079232 -0.084561
v 0.029327 -0.117845 -0.008781
v 0.029327 -0.121018 0.011257
v 0.029327 -0.107713 0.095261
v 0.029327 -0.098503 0.113336
v 0.029327 -0.038362 0.173476
v 0.029327 -0.020287 0.182686
v 0.029327 0.063716 0.195991
v 0.029327 0.083753 0.192818
v 0.029327 0.159534 0.154205
v 0.029327 0.173879 0.139860
v 0.029327 0.212491 0.064080
v 0.029327 0.215665 0.044043
v 0.029327 0.308004 -0.036805
v 0.029327 0.308350 -0.048365
v 0.029327 0.202706 -0.051522
v 0.029327 0.220333 -0.177720
v 0.029327 0.213818 -0.187274
v 0.029327 0.126495 -0.127733
v 0.029327 0.066579 -0.240190
v 0.029327 0.055691 -0.244090
v 0.029327 0.020043 -0.144593
v 0.029327 -0.094532 -0.200355
v 0.029327 -0.105632 -0.197111
v 0.029327 -0.075988 -0.095662
v 0.029327 -0.201457 -0.073430
v 0.029327 -0.208531 -0.064281
v 0.029327 -0.124919 0.000369
v 0.029327 -0.213357 0.092104
v 0.029327 -0.213702 0.103664
v 0.029327 -0.108058 0.106820
v 0.029326 -0.125686 0.233019
v 0.029326 -0.119170 0.242574
v 0.029327 -0.031847 0.183031
v 0.029327 0.028070 0.295489
v 0.029327 0.038957 0.299390
v 0.029327 0.074604 0.199891
v 0.029327 0.189178 0.255654
v 0.029327 0.200279 0.252410
v 0.029327 0.170635 0.150962
v 0.029327 0.296104 0.128728
v 0.029327 0.303179 0.119579
v 0.029327 0.219566 0.054930
v 0.029327 0.319064 0.019283
v 0.029327 0.315163 0.008395
v 0.029326 0.262248 -0.138844
v 0.029326 0.252694 -0.145359
v 0.029327 0.123339 -0.233377
v 0.029327 0.111779 -0.233031
v 0.029327 -0.044606 -0.228205
v 0.029327 -0.053755 -0.221131
v 0.029326 -0.177437 -0.125306
v 0.029326 -0.180681 -0.114204
v 0.029327 -0.224417 0.036017
v 0.029327 -0.220516 0.046904
v 0.029326 -0.167601 0.194143
v 0.029326 -0.158045 0.200659
v 0.029327 -0.028692 0.288675
v 0.029327 -0.017131 0.288330
v 0.029327 0.139254 0.283504
v 0.029327 0.148403 0.276429
v 0.029327 0.272084 0.180606
v 0.029327 0.275328 0.169504
v 0.075804 0.227884 -0.047140
v 0.123445 0.227884 -0.047140
v 0.123445 0.185518 -0.110545
v 0.075804 0.185518 -0.110545
v 0.123445 0.122114 -0.152910
v 0.075804 0.122114 -0.152910
v 0.123445 0.047324 -0.167787
v 0.075804 0.047324 -0.167787
v 0.123445 -0.027467 -0.152910
v 0.075804 -0.027467 -0.152910
v 0.123445 -0.090871 -0.110545
v 0.075804 -0.090871 -0.110545
v 0.123445 -0.133237 -0.047141
v 0.075804 -0.133237 -0.047141
v 0.123445 -0.148113 0.027649
v 0.075804 -0.148113 0.027649
v 0.123445 -0.133237 0.102441
v 0.075804 -0.133237 0.102441
v 0.123445 -0.090872 0.165844
v 0.075804 -0.090872 0.165844
v 0.123445 -0.027467 0.208209
v 0.075804 -0.027467 0.208209
v 0.123445 0.047324 0.223086
v 0.075804 0.047324 0.223086
v 0.123445 0.122114 0.208209
v 0.075804 0.122114 0.208209
v 0.123445 0.185518 0.165844
v 0.075804 0.185518 0.165844
v 0.123445 0.227884 0.102440
v 0.075804 0.227884 0.102440
v 0.123445 0.242761 0.027650
v 0.075804 0.242761 0.027650
v 0.075804 0.047324 0.027650
f 1 2 3
f 4 2 1
f 5 2 4
f 6 2 5
f 7 2 6
f 8 2 7
f 9 2 8
f 10 2 9
f 11 2 10
f 12 2 11
f 13 2 12
f 14 2 13
f 15 2 14
f 16 2 15
f 17 2 16
f 18 2 17
f 19 2 18
f 20 2 19
f 21 2 20
f 3 2 21
f 22 23 24 25
f 26 27 23 22
f 28 29 27 26
f 30 31 29 28
f 32 33 31 30
f 34 35 33 32
f 36 37 35 34
f 38 39 37 36
f 40 41 39 38
f 42 43 41 40
f 44 45 43 42
f 46 47 45 44
f 48 49 47 46
f 50 51 49 48
f 52 53 51 50
f 54 55 53 52
f 56 57 55 54
f 58 59 57 56
f 60 61 59 58
f 25 24 61 60
f 23 62 63 24
f 27 64 62 23
f 29 65 64 27
f 31 66 65 29
f 33 67 66 31
f 35 68 67 33
f 37 69 68 35
f 39 70 69 37
f 41 71 70 39
f 43 72 71 41
f 45 73 72 43
f 47 74 73 45
f 49 75 74 47
f 51 76 75 49
f 53 77 76 51
f 55 78 77 53
f 57 79 78 55
f 59 80 79 57
f 61 81 80 59
f 24 63 81 61
f 62 1 3 63
f 64 4 1 62
f 65 5 4 64
f 66 6 5 65
f 67 7 6 66
f 68 8 7 67
f 69 9 8 68
f 70 10 9 69
f 71 11 10 70
f 72 12 11 71
f 73 13 12 72
f 74 14 13 73
f 75 15 14 74
f 76 16 15 75
f 77 17 16 76
f 78 18 17 77
f 79 19 18 78
f 80 20 19 79
f 81 21 20 80
f 63 3 21 81
f 83 86 87 84
f 85 88 89 86
f 86 89 90 87
f 88 91 92 89
f 89 92 93 90
f 91 94 95 92
f 92 95 96 93
f 94 97 98 95
f 95 98 99 96
f 97 100 101 98
f 98 101 102 99
f 100 103 104 101
f 101 104 105 102
f 103 106 107 104
f 104 107 108 105
f 106 109 110 107
f 107 110 111 108
f 109 112 113 110
f 110 113 114 111
f 84 26 22 82
f 87 28 26 84
f 90 30 28 87
f 93 32 30 90
f 96 34 32 93
f 99 36 34 96
f 102 38 36 99
f 105 40 38 102
f 108 42 40 105
f 111 44 42 108
f 114 46 44 111
f 115 48 46 114
f 116 117 118 119
f 119 118 120 121
f 121 120 122 123
f 123 122 124 125
f 125 124 126 127
f 127 126 128 129
f 129 128 130 131
f 131 130 132 133
f 133 132 134 135
f 135 134 136 137
f 137 136 138 139
f 139 138 117 116
f 119 140 116
f 121 140 119
f 123 140 121
f 125 140 123
f 127 140 125
f 129 140 127
f 131 140 129
f 133 140 131
f 135 140 133
f 137 140 135
f 139 140 137
f 116 140 139
f 141 142 143
f 144 142 141
f 145 142 144
f 146 142 145
f 147 142 146
f 148 142 147
f 149 142 148
f 150 142 149
f 151 142 150
f 152 142 151
f 153 142 152
f 154 142 153
f 155 142 154
f 156 142 155
f 157 142 156
f 158 142 157
f 159 142 158
f 160 142 159
f 161 142 160
f 143 142 161
f 162 163 164
f 165 166 167
f 168 169 170
f 171 149 148 172
f 173 151 150 174
f 175 153 152 176
f 177 155 154 178
f 179 157 156 180
f 181 182 183
f 184 185 186
f 164 187 188 162
f 167 189 190 165
f 170 191 192 168
f 172 193 194 195
f 174 196 197 198
f 176 199 200 201
f 178 202 203 204
f 180 205 206 207
f 183 208 209 181
f 186 210 211 184
f 184 212 213 185
f 162 214 215 163
f 165 216 217 166
f 168 218 219 169
f 195 220 221 171
f 198 222 223 173
f 201 224 225 175
f 204 226 227 177
f 207 228 229 179
f 181 230 231 182
f 185 161 160 186
f 163 141 143 164
f 166 145 144 167
f 169 147 146 170
f 195 171 172
f 198 173 174
f 201 175 176
f 204 177 178
f 207 179 180
f 182 159 158 183
f 141 232 233 144
f 145 234 235 146
f 147 236 237 148
f 149 238 239 150
f 151 240 241 152
f 153 242 243 154
f 155 244 245 156
f 157 246 247 158
f 159 248 249 160
f 161 250 251 143
f 143 251 252 164
f 163 253 232 141
f 144 233 254 167
f 166 255 234 145
f 146 235 256 170
f 169 257 236 147
f 148 237 258 172
f 171 259 238 149
f 150 239 260 174
f 173 261 240 151
f 152 241 262 176
f 175 263 242 153
f 154 243 264 178
f 177 265 244 155
f 156 245 266 180
f 179 267 246 157
f 158 247 268 183
f 182 269 248 159
f 160 249 270 186
f 185 271 250 161
f 164 252 272 187
f 188 273 274 162
f 167 254 275 189
f 190 276 277 165
f 170 256 278 191
f 192 279 280 168
f 172 258 281 193
f 194 282 283 195
f 174 260 284 196
f 197 285 286 198
f 176 262 287 199
f 200 288 289 201
f 178 264 290 202
f 203 291 292 204
f 180 266 293 205
f 206 294 295 207
f 183 268 296 208
f 209 297 298 181
f 186 270 299 210
f 211 300 301 184
f 184 301 302 212
f 213 303 271 185
f 162 274 304 214
f 215 305 253 163
f 165 277 306 216
f 217 307 255 166
f 168 280 308 218
f 219 309 257 169
f 195 283 310 220
f 221 311 259 171
f 198 286 312 222
f 223 313 261 173
f 201 289 314 224
f 225 315 263 175
f 204 292 316 226
f 227 317 265 177
f 207 295 318 228
f 229 319 267 179
f 181 298 320 230
f 231 321 269 182
f 322 323 324 325
f 325 324 326 327
f 327 326 328 329
f 329 328 330 331
f 331 330 332 333
f 333 332 334 335
f 335 334 336 337
f 337 336 338 339
f 339 338 340 341
f 341 340 342 343
f 343 342 344 345
f 345 344 346 347
f 347 346 348 349
f 349 348 350 351
f 351 350 352 353
f 353 352 323 322
f 325 354 322
f 327 354 325
f 329 354 327
f 331 354 329
f 333 354 331
f 335 354 333
f 337 354 335
f 339 354 337
f 341 354 339
f 343 354 341
f 345 354 343
f 347 354 345
f 349 354 347
f 351 354 349
f 353 354 351
f 322 354 353
