# Supercar OBJ
v 0.542138 0.664345 2.139836
v 0.643217 0.604246 2.188071
v 0.643446 0.610110 2.185778
v 0.546629 0.667454 2.140063
v 0.785899 0.710686 1.945550
v 0.764051 0.654519 2.051646
v 0.768900 0.651203 2.047172
v 0.791704 0.708486 1.938698
v 0.628962 0.672206 2.089511
v 0.611142 0.707696 2.023682
v 0.550265 0.689276 2.079729
v 0.555583 0.691737 2.082594
v 0.612589 0.708201 2.030109
v 0.806452 0.757135 1.844516
v 0.812652 0.758699 1.829769
v 0.749414 0.605731 2.113701
v 0.745759 0.612390 2.114797
v -0.542139 0.664345 2.139836
v -0.546628 0.667454 2.140063
v -0.643445 0.610110 2.185778
v -0.643217 0.604246 2.188071
v -0.785898 0.710686 1.945550
v -0.791704 0.708486 1.938698
v -0.768900 0.651203 2.047172
v -0.764051 0.654519 2.051646
v -0.628962 0.672206 2.089511
v -0.611142 0.707696 2.023682
v -0.612588 0.708201 2.030109
v -0.555583 0.691737 2.082594
v -0.550266 0.689276 2.079729
v -0.806452 0.757135 1.844516
v -0.812651 0.758699 1.829769
v -0.745759 0.612390 2.114797
v -0.749413 0.605731 2.113701
f 1 2 3 4
f 5 6 7 8
f 4 3 9
f 10 11 12 13
f 4 12 11 1
f 13 12 4 9
f 14 5 8 15
f 13 14 15 10
f 9 5 14 13
f 9 6 5
f 2 16 17 3
f 6 17 16 7
f 3 17 6 9
f 18 19 20 21
f 22 23 24 25
f 19 26 20
f 27 28 29 30
f 19 18 30 29
f 28 26 19 29
f 31 32 23 22
f 28 27 32 31
f 26 28 31 22
f 26 22 25
f 21 20 33 34
f 25 24 34 33
f 20 26 25 33
