# Supercar OBJ
v 0.657242 1.084760 0.502905
v 0.714904 1.018880 0.756865
v 0.844849 0.835498 0.781891
v 0.827943 0.854867 0.511068
v 0.615654 1.129750 0.201848
v 0.793596 0.899132 0.201801
v 0.608486 1.128987 -0.118270
v 0.756846 0.943587 -0.118229
v 0.751973 0.946978 -0.149352
v 0.609651 1.126624 -0.173573
v 0.779918 0.943465 0.976802
v 0.834831 0.875549 1.110715
v 0.852365 0.844056 0.961102
v 0.724322 1.008121 0.798361
v 0.847408 0.832575 0.823107
v 0.179847 1.074038 0.856813
v 0.000000 1.078222 0.864651
v 0.000000 1.003851 1.083286
v 0.188185 1.001975 1.069692
v 0.000000 1.167724 0.546189
v 0.163911 1.166047 0.543712
v 0.540216 0.995310 1.016855
v 0.505418 1.064217 0.822858
v 0.359424 1.069854 0.840065
v 0.376433 1.000091 1.047200
v 0.406752 1.161210 0.521308
v 0.704123 0.990535 0.986472
v 0.651261 1.053164 0.803977
v 0.543196 1.152346 0.502039
v 0.595005 1.123094 0.542984
v 0.580564 1.139664 0.508495
v 0.619666 0.866701 1.391131
v 0.808916 0.857960 1.302985
v 0.438548 0.859562 1.455164
v 0.242379 0.844284 1.497624
v 0.000000 0.845625 1.512510
v 0.734612 0.959136 -0.259644
v 0.684645 0.986181 -0.484655
v 0.625998 1.101857 -0.414021
v 0.611619 1.122606 -0.269806
v 0.610084 1.125741 -0.194499
v 0.748371 0.949491 -0.172323
v -0.657241 1.084760 0.502905
v -0.827943 0.854867 0.511068
v -0.844850 0.835498 0.781891
v -0.714904 1.018880 0.756865
v -0.615654 1.129750 0.201848
v -0.793595 0.899132 0.201801
v -0.608485 1.128987 -0.118270
v -0.756846 0.943587 -0.118229
v -0.609651 1.126624 -0.173573
v -0.751972 0.946978 -0.149352
v -0.779918 0.943465 0.976802
v -0.852364 0.844056 0.961102
v -0.834831 0.875549 1.110715
v -0.724321 1.008121 0.798361
v -0.847408 0.832575 0.823107
v -0.179847 1.074038 0.856813
v -0.188185 1.001975 1.069692
v -0.163911 1.166047 0.543712
v -0.540215 0.995310 1.016855
v -0.376432 1.000091 1.047200
v -0.359424 1.069854 0.840065
v -0.505417 1.064217 0.822858
v -0.406752 1.161210 0.521308
v -0.651261 1.053164 0.803977
v -0.704122 0.990535 0.986472
v -0.543196 1.152346 0.502039
v -0.580563 1.139664 0.508495
v -0.595006 1.123094 0.542984
v -0.808916 0.857960 1.302985
v -0.619665 0.866701 1.391131
v -0.438548 0.859562 1.455164
v -0.242379 0.844284 1.497624
v -0.734612 0.959136 -0.259644
v -0.611619 1.122606 -0.269806
v -0.625998 1.101857 -0.414021
v -0.684644 0.986181 -0.484655
v -0.610083 1.125741 -0.194499
v -0.748370 0.949491 -0.172323
f 1 2 3 4
f 5 1 4 6
f 7 5 6 8
f 8 9 10 7
f 11 12 13
f 14 11 13 15
f 16 17 18 19
f 20 17 16 21
f 22 23 24 25
f 23 26 24
f 25 24 16 19
f 26 21 16 24
f 23 22 27 28
f 29 30 31
f 29 23 28 30
f 26 23 29
f 22 32 33 27
f 34 32 22 25
f 19 35 34 25
f 18 36 35 19
f 37 38 39 40
f 41 42 37 40
f 43 44 45 46
f 47 48 44 43
f 49 50 48 47
f 50 49 51 52
f 53 54 55
f 56 57 54 53
f 58 59 18 17
f 20 60 58 17
f 61 62 63 64
f 64 63 65
f 62 59 58 63
f 65 63 58 60
f 64 66 67 61
f 68 69 70
f 68 70 66 64
f 65 68 64
f 61 67 71 72
f 73 62 61 72
f 59 62 73 74
f 18 59 74 36
f 75 76 77 78
f 79 76 75 80
